<?xml version="1.0" encoding="UTF-8"?>
<svg id="Livello_1" xmlns="http://www.w3.org/2000/svg" viewBox="0 0 20 20">
  <defs>
    <style>
      .cls-1 {
        fill: #010101;
      }
    </style>
  </defs>
  <path class="cls-1" d="M9.72,8.65c-2.45,0-4.43-1.94-4.43-4.32S7.28,0,9.72,0s4.43,1.94,4.43,4.32-1.99,4.32-4.43,4.32ZM9.72,1.87c-1.42,0-2.57,1.1-2.57,2.46s1.15,2.46,2.57,2.46,2.57-1.1,2.57-2.46-1.15-2.46-2.57-2.46Z"/>
  <path class="cls-1" d="M18.42,20h-1.87c0-4.25-2.94-7.72-6.55-7.72s-6.55,3.46-6.55,7.72h-1.87c0-5.28,3.78-9.58,8.42-9.58s8.42,4.3,8.42,9.58Z"/>
</svg>