<?xml version="1.0" encoding="utf-8"?>
<!-- Generator: Adobe Illustrator 27.5.0, SVG Export Plug-In . SVG Version: 6.00 Build 0)  -->
<svg version="1.1" id="Layer_1" xmlns="http://www.w3.org/2000/svg" xmlns:xlink="http://www.w3.org/1999/xlink" x="0px" y="0px"
	 viewBox="0 0 4000 4000" style="enable-background:new 0 0 4000 4000;" xml:space="preserve">
<g>
	<g>
		<rect x="0.5" y="0.5" style="fill:#FFFFFF;" width="3999" height="3999"/>
		<path d="M3999,1v3998H1V1H3999 M4000,0H0v4000h4000V0L4000,0z"/>
	</g>
</g>
<g>
	<g>
		<defs>
			<path id="SVGID_1_" d="M2289.208,1050.539c-48.596-18.603-99.564-32.411-152.352-40.768l-25.323-154.638h-94.812h-94.809
				l-25.323,154.638c-52.788,8.357-103.772,22.139-152.371,40.751l-99.197-121.202l-149.549,86.346
				c233.403,319.785,807.189,178.42,889.747,808.256c-2.558-0.112-607.339-27.549-868.867-360.41
				c0,0,197.147,469.461,878.867,528.581c-665.869,433.386-1630.85-224.362-1071.395-1087.05l-0.023-0.312
				c-327.56,298.929-214.69,763.201-214.69,763.201h-0.006l0.006,94.811v94.815l154.609,25.317
				c8.357,52.793,22.14,103.785,40.756,152.387l-121.177,99.18l47.408,82.109l47.408,82.113l146.679-55.435
				c33.216,40.866,70.575,78.224,111.447,111.434l-55.434,146.69l82.113,47.404l82.113,47.407l99.206-121.212
				c48.59,18.603,99.563,32.405,152.351,40.762l25.323,154.645l94.809-0.006h94.818l25.316-154.609
				c52.792-8.357,103.785-22.14,152.388-40.756l99.181,121.176l82.107-47.407l82.114-47.408l-55.436-146.679
				c40.864-33.216,78.223-70.575,111.435-111.447l146.69,55.434l47.404-82.113l47.407-82.113l-121.215-99.206
				c18.606-48.589,32.407-99.563,40.764-152.351l154.645-25.323l-0.006-94.809v-94.818l-154.609-25.317
				c-8.363-52.791-22.14-103.784-40.758-152.387l121.178-99.18l-47.407-82.109l-47.411-82.106l-146.679,55.428
				c-33.22-40.864-70.575-78.222-111.445-111.434l55.436-146.69l-82.113-47.404l-82.108-47.408L2289.208,1050.539z"/>
		</defs>
		<clipPath id="SVGID_00000011711683689301037380000004283821719042185628_">
			<use xlink:href="#SVGID_1_"  style="overflow:visible;"/>
		</clipPath>
		
			<linearGradient id="SVGID_00000020372071602516630150000011503665755123542713_" gradientUnits="userSpaceOnUse" x1="1324.9403" y1="2404.854" x2="2603.4795" y2="824.3094">
			<stop  offset="0" style="stop-color:#007B70"/>
			<stop  offset="1" style="stop-color:#AFF022"/>
		</linearGradient>
		
			<rect x="764.37" y="855.133" style="clip-path:url(#SVGID_00000011711683689301037380000004283821719042185628_);fill:url(#SVGID_00000020372071602516630150000011503665755123542713_);" width="2159.97" height="1815.229"/>
	</g>
	<defs>
		<filter id="Adobe_OpacityMaskFilter" filterUnits="userSpaceOnUse" x="1090.323" y="904.732" width="1759.824" height="1765.629">
			<feColorMatrix  type="matrix" values="1 0 0 0 0  0 1 0 0 0  0 0 1 0 0  0 0 0 1 0"/>
		</filter>
	</defs>
	
		<mask maskUnits="userSpaceOnUse" x="1090.323" y="904.732" width="1759.824" height="1765.629" id="SVGID_00000065059352575198538180000002188700836806784695_">
		<g style="filter:url(#Adobe_OpacityMaskFilter);">
			
				<linearGradient id="SVGID_00000018228305359883819910000002718229213230584989_" gradientUnits="userSpaceOnUse" x1="313.0822" y1="2555.8025" x2="2064.3235" y2="1722.011" gradientTransform="matrix(1 0 0 1 480.1507 -207.8697)">
				<stop  offset="0" style="stop-color:#FFFFFF"/>
				<stop  offset="1" style="stop-color:#000000"/>
			</linearGradient>
			
				<rect x="1090.32" y="904.73" style="fill:url(#SVGID_00000018228305359883819910000002718229213230584989_);" width="1759.826" height="1765.631"/>
		</g>
	</mask>
	
		<path style="mask:url(#SVGID_00000065059352575198538180000002188700836806784695_);fill-rule:evenodd;clip-rule:evenodd;fill:#215605;" d="
		M2728.932,2035.228c-395.582,370.19-851.295,221.488-851.295,221.488c407.345-37.653,517.583-264.622,517.583-264.622
		c-665.869,433.386-1630.85-224.362-1071.395-1087.05l-0.023-0.312c-327.56,298.929-214.69,763.201-214.696,763.201l0.006,94.811
		v94.815l154.609,25.317c8.357,52.793,22.14,103.785,40.756,152.387l-121.177,99.18l47.408,82.109l47.408,82.113l146.679-55.435
		c33.216,40.866,70.575,78.224,111.447,111.434l-55.434,146.69l82.113,47.404l82.113,47.407l99.206-121.212
		c48.59,18.603,99.563,32.405,152.351,40.762l25.323,154.645l94.809-0.006h94.818l25.316-154.609
		c52.792-8.357,103.785-22.14,152.388-40.756l99.181,121.176l82.107-47.407l82.114-47.408l-55.436-146.679
		c40.864-33.216,78.223-70.575,111.435-111.447l146.69,55.434l47.404-82.113l47.407-82.113L2728.932,2035.228z"/>
	<defs>
		
			<filter id="Adobe_OpacityMaskFilter_00000142144646821814583460000001154861275662229933_" filterUnits="userSpaceOnUse" x="1495.473" y="855.133" width="1428.868" height="1027.744">
			<feColorMatrix  type="matrix" values="1 0 0 0 0  0 1 0 0 0  0 0 1 0 0  0 0 0 1 0"/>
		</filter>
	</defs>
	
		<mask maskUnits="userSpaceOnUse" x="1495.473" y="855.133" width="1428.868" height="1027.744" id="SVGID_00000183206494477429043160000006942116843933529491_">
		<g style="filter:url(#Adobe_OpacityMaskFilter_00000142144646821814583460000001154861275662229933_);">
			
				<linearGradient id="SVGID_00000079475899912849296130000012808650928784752016_" gradientUnits="userSpaceOnUse" x1="1393.4388" y1="751.6819" x2="1873.9775" y2="2058.177" gradientTransform="matrix(1 0 0 1 499.2812 -245.0531)">
				<stop  offset="0" style="stop-color:#FFFFFF"/>
				<stop  offset="1" style="stop-color:#000000"/>
			</linearGradient>
			
				<rect x="1495.473" y="855.132" style="fill:url(#SVGID_00000079475899912849296130000012808650928784752016_);" width="1428.87" height="1027.745"/>
		</g>
	</mask>
	
		<path style="mask:url(#SVGID_00000183206494477429043160000006942116843933529491_);fill-rule:evenodd;clip-rule:evenodd;fill:#EBF855;" d="
		M1831.964,1150.808c0,0,436.197,48.242,686.978,270.023c0,0-164.792-186.631-250.17-230.311c0,0,519.377,189.458,500.924,692.358
		l154.645-25.323l-0.006-94.809v-94.818l-154.609-25.317c-8.363-52.791-22.14-103.784-40.758-152.387l121.178-99.18l-47.407-82.109
		l-47.411-82.106l-146.679,55.428c-33.22-40.864-70.575-78.222-111.445-111.434l55.436-146.69l-82.113-47.404l-82.108-47.408
		l-99.211,121.219c-48.596-18.603-99.564-32.411-152.352-40.768l-25.323-154.638h-94.812h-94.809l-25.323,154.638
		c-52.788,8.357-103.772,22.139-152.371,40.751l-99.197-121.202l-149.549,86.346c131.436,180.082,370.813,213.923,569.624,321.598
		C1983.031,1286.146,1850.923,1198.209,1831.964,1150.808"/>
	<defs>
		
			<filter id="Adobe_OpacityMaskFilter_00000053520846076691307130000000972995651860958397_" filterUnits="userSpaceOnUse" x="1156.163" y="829.178" width="1239.057" height="1299.967">
			<feColorMatrix  type="matrix" values="1 0 0 0 0  0 1 0 0 0  0 0 1 0 0  0 0 0 1 0"/>
		</filter>
	</defs>
	
		<mask maskUnits="userSpaceOnUse" x="1156.163" y="829.178" width="1239.057" height="1299.967" id="SVGID_00000129183528144139312300000013401701127159964040_">
		<g style="filter:url(#Adobe_OpacityMaskFilter_00000053520846076691307130000000972995651860958397_);">
			
				<linearGradient id="SVGID_00000150084276851578071150000004821150372795740600_" gradientUnits="userSpaceOnUse" x1="2738.6765" y1="3202.3992" x2="1023.2236" y2="1435.2711" gradientTransform="matrix(1 0 0 1 483.2595 -233.4246)">
				<stop  offset="0" style="stop-color:#FFFFFF"/>
				<stop  offset="1" style="stop-color:#000000"/>
			</linearGradient>
			
				<rect x="1156.16" y="829.178" style="fill:url(#SVGID_00000150084276851578071150000004821150372795740600_);" width="1239.063" height="1299.972"/>
		</g>
	</mask>
	
		<path style="mask:url(#SVGID_00000129183528144139312300000013401701127159964040_);fill-rule:evenodd;clip-rule:evenodd;fill:#C4D4D5;" d="
		M1403.076,829.178c-38.716,24.819-79.275,75.554-79.275,75.554l0.023,0.312C764.37,1767.732,1729.351,2425.48,2395.22,1992.094
		c-681.719-59.12-878.867-528.581-878.867-528.581c261.528,332.861,866.309,360.297,868.867,360.41
		c-36.07-275.156-165.884-403.122-320.123-486.658c-198.811-107.675-438.189-141.516-569.624-321.598
		C1457.82,980.769,1403.076,829.178,1403.076,829.178"/>
	<path style="fill:#231916;" d="M2817.543,2895.066c20.003,0,28.924,13.537,28.924,27.117c0,13.573-8.675,27.111-28.924,27.111
		h-48.448v-54.227H2817.543z M2886.718,3032.213l-51.099-57.609c32.057-6.506,42.666-29.885,42.666-53.147
		c0-29.283-20.972-55.794-60.742-56.034c-26.751,0.24-53.507,0-80.264,0v168.957h31.817v-56.402h30.611l49.167,56.402h37.844
		V3032.213z M2661.113,2972.918h-62.663l31.331-71.985L2661.113,2972.918z M2688.111,3034.38h34.711l-75.685-168.957h-34.711
		l-75.677,168.957h34.465l14.46-31.818h88.214L2688.111,3034.38z M2529.515,3003.048h-94.721v-38.085h91.347v-29.646h-91.347
		v-39.045h94.721v-30.851h-126.297c0,56.316,0,112.796,0,168.957h126.297V3003.048z M2373.086,2886.631
		c-17.355-17.114-40.012-25.789-62.668-25.789c-59.536,0-89.181,43.866-89.181,91.347c0,44.352,25.792,86.045,89.181,86.045
		c29.649,0,50.62-11.328,67.249-30.366v-71.102h-72.311v28.436h43.147v29.891c-13.256,10.602-24.83,13.495-38.085,13.495
		c-41.941,0-58.089-28.684-58.089-56.4c0-34.705,21.937-62.184,58.089-62.184c14.701,0,31.576,6.023,42.905,16.871
		L2373.086,2886.631z M2151.582,2994.128h-87.972v-25.552h79.778v-38.805h-79.778v-24.103h84.598v-40.006H2016.61v168.718h134.972
		V2994.128z M1921.403,2903.741c12.529,0,18.557,10.369,18.557,20.971c0,10.121-5.543,19.522-18.076,19.522h-35.192v-40.493
		H1921.403z M1995.155,3031.487l-43.868-56.883c28.443-12.533,35.671-30.13,35.671-50.854c0-30.37-22.415-58.088-65.556-58.088
		h-82.432v168.718h47.721v-54.714h16.628l39.293,54.714h52.541V3031.487z M1759.667,2865.662v94.439
		c0,25.592-12.774,37.159-32.058,37.159c-19.283,0-32.058-11.087-32.058-37.64v-93.958h-47.479v93.958
		c0,51.622,30.13,78.373,79.537,78.373c49.413,0,79.783-27.958,79.538-77.892v-94.439H1759.667z M1532.862,3034.38h47.48v-129.432
		h49.413v-39.286h-146.067v39.286h49.174V3034.38z M1420.786,2966.649h-43.147l21.691-53.747L1420.786,2966.649z M1448.017,3034.38
		h51.099l-75.443-168.718h-48.2l-75.683,168.718h50.612l11.089-27.718h75.443L1448.017,3034.38z M1168.43,2865.662h-40.493v168.718
		h48.199v-53.988l-0.72-36.878l70.378,90.866h40.491v-168.718h-47.961v57.843c0.242,6.508,0.242,14.221,1.449,34.47
		L1168.43,2865.662z"/>
	<path style="fill:#231916;" d="M2624.397,3110.262h-14.167v59.047h16.868v-18.897l-0.252-12.908l24.634,31.806h14.172v-59.047
		h-16.783v20.242c0.082,2.277,0.082,4.977,0.504,12.067L2624.397,3110.262z M2540.218,3145.602h-15.098l7.595-18.809
		L2540.218,3145.602z M2549.752,3169.309h17.884l-26.403-59.047h-16.869l-26.491,59.047h17.715l3.884-9.7h26.403L2549.752,3169.309z
		 M2456.545,3118.102c-7.762-7.84-15.014-9.528-23.198-9.528c-22.188,0-32.309,15.856-32.309,31.295
		c0,15.435,8.854,31.043,32.225,31.043c11.389,0,21.679-4.052,25.388-11.555v-26.236H2429.8v13.076h14.935v7.588
		c-3.374,2.45-8.266,3.037-11.388,3.037c-11.897,0-15.861-9.359-15.861-16.954c0-11.555,6.243-17.294,15.861-17.294
		c3.963,0,9.192,1.097,13.495,5.144L2456.545,3118.102z M2341.065,3139.787c0,9.784-6.329,16.701-16.113,16.701
		c-9.45,0-16.115-6.832-16.115-16.701c0-9.787,6.581-16.701,16.115-16.701C2334.737,3123.085,2341.065,3129.663,2341.065,3139.787z
		 M2357.766,3139.787c0-19.656-13.412-30.961-32.813-30.961c-19.32,0-32.816,11.557-32.816,30.961
		c0,19.738,13.496,30.958,32.816,30.958C2344.354,3170.745,2357.766,3159.525,2357.766,3139.787z M2205.93,3110.262v59.047h44.959
		v-14.173h-28.258v-44.875H2205.93z M2156.498,3116.079c-6.326-4.977-13.243-7.001-22.098-7.001
		c-12.487,0-24.721,5.398-24.721,17.885c0,14.677,11.135,17.968,24.044,19.15c6.494,0.589,9.868,2.444,9.868,5.398
		c0,3.289-3.793,5.229-9.276,5.229c-4.98,0-11.476-1.01-17.294-6.665l-9.197,10.549c8.182,8.603,15.778,10.458,26.402,10.373
		c13.25-0.085,25.899-5.824,25.899-19.234c0-13.58-12.229-18.304-23.954-19.571c-5.822-0.589-9.785-1.184-9.785-5.229
		c0-3.122,3.963-4.388,8.014-4.388c5.144,0,9.787,1.015,13.831,4.051L2156.498,3116.079z M2045.407,3155.219h-30.792v-8.938h27.922
		v-13.586h-27.922v-8.435h29.609v-13.999h-46.056v59.047h47.239V3155.219z M1931.782,3169.309h16.534v-59.047h-17.375l-15.523,19.99
		l-15.526-19.99h-17.458v59.047h16.534v-35.095l14.762,17.801h2.955l15.098-17.885V3169.309z M1819.173,3139.787
		c0,9.784-6.329,16.701-16.113,16.701c-9.45,0-16.115-6.832-16.115-16.701c0-9.787,6.581-16.701,16.115-16.701
		C1812.844,3123.085,1819.173,3129.663,1819.173,3139.787z M1835.873,3139.787c0-19.656-13.412-30.961-32.813-30.961
		c-19.32,0-32.816,11.557-32.816,30.961c0,19.738,13.496,30.958,32.816,30.958
		C1822.461,3170.745,1835.873,3159.525,1835.873,3139.787z M1724.103,3116.079c-6.326-4.977-13.243-7.001-22.097-7.001
		c-12.487,0-24.722,5.398-24.722,17.885c0,14.677,11.135,17.968,24.043,19.15c6.495,0.589,9.869,2.444,9.869,5.398
		c0,3.289-3.795,5.229-9.276,5.229c-4.981,0-11.479-1.01-17.295-6.665l-9.198,10.549c8.184,8.603,15.776,10.458,26.403,10.373
		c13.249-0.085,25.897-5.824,25.897-19.234c0-13.58-12.228-18.304-23.953-19.571c-5.822-0.589-9.785-1.184-9.785-5.229
		c0-3.122,3.963-4.388,8.014-4.388c5.144,0,9.784,1.015,13.832,4.051L1724.103,3116.079z M1632.163,3155.219h-30.792v-8.938h27.922
		v-13.586h-27.922v-8.435h29.608v-13.999h-46.057v59.047h47.241V3155.219z M1541.572,3110.262h-18.22l-7.091,20.356
		c-1.351,4.905-2.444,9.63-3.288,14.103l-11.221-34.459h-11.557l-10.884,34.459c-0.841-4.388-1.688-9.198-3.122-13.681
		l-7.589-20.778h-18.219l22.013,59.047h13.497l10.128-28.299l10.458,28.299h13.579L1541.572,3110.262z M1391.333,3145.602h-15.098
		l7.595-18.809L1391.333,3145.602z M1400.865,3169.309h17.885l-26.403-59.047h-16.869l-26.494,59.047h17.718l3.884-9.7h26.401
		L1400.865,3169.309z"/>
</g>
</svg>
