<?xml version="1.0" encoding="UTF-8"?>
<svg id="Livello_1" xmlns="http://www.w3.org/2000/svg" viewBox="0 0 34 45">
  <defs>
    <style>
      .cls-1 {
        fill: #00965e;
        stroke: #fff;
        stroke-width: 2px;
      }

      .cls-2 {
        fill: #fff;
      }
    </style>
  </defs>
  <path class="cls-1" d="M28.31,6.09c-3-2.98-7.07-4.66-11.31-4.66s-8.31,1.67-11.31,4.66c-3,2.98-4.69,7.03-4.69,11.25,0,2.9,1.01,5.95,2.45,8.85,1.45,2.91,3.36,5.74,5.26,8.2,1.9,2.47,3.8,4.6,5.22,6.1.71.75,1.31,1.36,1.72,1.77.21.21.37.37.49.48l.86.82.86-.82c.11-.11.28-.27.49-.48.42-.41,1.01-1.02,1.72-1.77,1.42-1.51,3.32-3.64,5.22-6.1,1.9-2.47,3.81-5.29,5.26-8.2,1.44-2.9,2.45-5.95,2.45-8.85,0-4.22-1.69-8.27-4.69-11.25ZM21.6,21.91c-1.22,1.21-2.87,1.89-4.6,1.89s-3.38-.68-4.6-1.89c-1.22-1.21-1.9-2.85-1.9-4.56s.68-3.35,1.9-4.56c1.22-1.21,2.87-1.89,4.6-1.89s3.38.68,4.6,1.89c1.22,1.21,1.9,2.85,1.9,4.56s-.68,3.35-1.9,4.56Z"/>
  <circle class="cls-2" cx="17" cy="17.34" r="6.45"/>
</svg>