<?xml version="1.0" encoding="UTF-8"?>
<svg xmlns="http://www.w3.org/2000/svg" version="1.1" viewBox="0 0 34 45">
  <defs>
    <style>
      .cls-1 {
        fill: #00965e;
        stroke: #fff;
        stroke-width: 2px;
      }
    </style>
  </defs>
  <!-- Generator: Adobe Illustrator 28.7.2, SVG Export Plug-In . SVG Version: 1.2.0 Build 154)  -->
  <g>
    <g id="Livello_1">
      <g id="Livello_1-2" data-name="Livello_1">
        <path class="cls-1" d="M28.3,6.1c-3-3-7.1-4.7-11.3-4.7s-8.3,1.7-11.3,4.7c-3,3-4.7,7-4.7,11.2s1,6,2.5,8.9,3.4,5.7,5.3,8.2c1.9,2.5,3.8,4.6,5.2,6.1s1.3,1.4,1.7,1.8c.2.2.4.4.5.5l.9.8.9-.8c.1,0,.3-.3.5-.5.4-.4,1-1,1.7-1.8,1.4-1.5,3.3-3.6,5.2-6.1,1.9-2.5,3.8-5.3,5.3-8.2,1.4-2.9,2.4-6,2.4-8.9,0-4.2-1.7-8.3-4.7-11.2h-.1Z"/>
      </g>
    </g>
  </g>
</svg>